# xmcd
#
# Track frame offsets: 
#        150
#        11987
#        23796
#        35415
#        46466
#        58734
#        71102
#        84953
#        98949
#        111025
#        124423
#        138098
#        151827
#        165439
#        178187
#        192067
#        203712
#        214573
#        226874
#        240486
#        252487
#        262868
#        273813
#        285270
#        299434
#        311870
#
# Disc length: 4320 seconds
#
# Revision: 1
# Processed by: cddbd v1.5.2PL0 Copyright (c) Steve Scherf et al.
# Submitted via: ExactAudioCopyFreeDBPlugin 1.0
#
DISCID=6b10de1a
DTITLE=Ray Price - The Honky Tonk Years (1950-1966) - CD01
DYEAR=2002
DGENRE=Country
TTITLE0=Jealous Lies
TTITLE1=Your Wedding Corsage
TTITLE2=If You're Ever Lonely Darling
TTITLE3=I Saw My Castles Fall Today
TTITLE4=You've Got My Troubles Now
TTITLE5=I Get The Short End Every Time
TTITLE6=Hey La La
TTITLE7=The Answer To The Last Letter
TTITLE8=Till Death Do Us Part
TTITLE9=Beyond The Last Mile
TTITLE10=Heartaching Blues
TTITLE11=Weary Blues (From Waiting)
TTITLE12=I Made A Mistake And I'm Sorry
TTITLE13=We Crossed Our Heart
TTITLE14=Your Heart Is Too Crowded
TTITLE15=I Lost The Only Love I Knew
TTITLE16=I've Got To Hurry, Hurry, Hurry
TTITLE17=Talk To Your Heart
TTITLE18=I Know I'll NeverWin Your Love Again
TTITLE19=The Road Of No Return
TTITLE20=You're Under Arrest (For Stealing My Heart)
TTITLE21=Move On In And Stay
TTITLE22=I Can't Escape From You
TTITLE23=Won't You Please Be Mine
TTITLE24=Don't Let The Stars Get In Your Eyes
TTITLE25=My Old Scrapbook
EXTD=
EXTT0=
EXTT1=
EXTT2=
EXTT3=
EXTT4=
EXTT5=
EXTT6=
EXTT7=
EXTT8=
EXTT9=
EXTT10=
EXTT11=
EXTT12=
EXTT13=
EXTT14=
EXTT15=
EXTT16=
EXTT17=
EXTT18=
EXTT19=
EXTT20=
EXTT21=
EXTT22=
EXTT23=
EXTT24=
EXTT25=
PLAYORDER=
